<svg viewBox="0 0 2001.3608 1028.2143">
  <g
     id="layer1"
     transform="translate(932.10893,144.49515)">
    <path
       style="fill:#000000"
       d="m -129.70237,882.55071 c -9.24095,-2.106 -29.3422,-15.0104 -36.04109,-23.1373 -2.77452,-3.366 -11.54092,-18.6354 -54.20123,-94.4083 -48.24644,-85.6951 -96.669,-173.5787 -124.86922,-226.6291 -10.98305,-20.6613 -13.06485,-26.9657 -13.09731,-39.6631 -0.0215,-8.428 2.38784,-20.5901 5.39659,-27.2411 4.9133,-10.861 124.17024,-220.8591 127.70771,-224.8789 0.45584,-0.518 2.71431,0.8498 5.22618,3.1651 5.22741,4.8185 7.90844,6.2857 18.87278,10.3284 4.52524,1.6685 8.36934,3.1753 8.54244,3.3484 0.17311,0.1731 -7.86727,14.4347 -17.86749,31.6925 -22.32335,38.5242 -67.80437,118.1736 -90.15067,157.8778 -14.06182,24.9845 -16.78081,30.4949 -17.76358,36 -1.28207,7.1816 -0.60268,16.9874 1.61184,23.264 1.61178,4.5683 19.9807,38.2647 60.91065,111.736 15.77951,28.325 47.65891,85.6672 70.8431,127.4271 35.62574,64.1699 43.05645,76.9011 47.9869,82.217 6.77295,7.3024 13.60822,10.9655 22.80964,12.2239 6.23341,0.8525 338.20305,-0.3219 353.39995,-1.2502 12.0273,-0.7347 23.35171,-5.4484 29.99221,-12.4839 5.1412,-5.4472 88.8776,-149.5259 165.7155,-285.1339 10.7516,-18.975 20.0782,-36.4773 20.7259,-38.894 1.8179,-6.7829 1.4109,-19.4407 -0.7846,-24.4038 -3.049,-6.8926 -63.8113,-116.8152 -114.15,-206.5041 -5.6497,-10.066 -10.1079,-18.4167 -9.9072,-18.5571 0.2006,-0.1404 3.7398,-1.5426 7.8648,-3.116 8.8422,-3.3727 13.6606,-6.2493 19.5299,-11.6593 l 4.3017,-3.9652 5.4502,9.7997 c 2.9976,5.3899 16.8184,30.2748 30.7128,55.2998 13.8945,25.025 39.6748,71.1365 57.2896,102.4701 17.61479,31.3335 33.28949,59.6835 34.83279,63 8.4627,18.1862 8.0389,37.3672 -1.2317,55.7512 -1.5868,3.1467 -15.415,27.4467 -30.72919,54 -15.3142,26.5532 -56.3117,98.0037 -91.1056,158.7787 -34.7939,60.775 -65.0985,113.3608 -67.3435,116.8574 -8.2459,12.8427 -19.5391,21.6764 -32.707,25.5838 -4.9799,1.4777 -23.75121,1.6747 -198.500009,2.0831 -164.90777,0.3854 -193.913181,0.2429 -199.273791,-0.9787 z m 103.242411,-70.0456 c -0.25774,-0.825 -0.64665,-2.0894 -0.86424,-2.8098 -0.27264,-0.9027 29.8028904,-13.8357 96.75002,-41.6042 53.430099,-22.1619 97.552399,-40.36 98.049599,-40.4402 0.8395,-0.1354 54.4051,83.9447 54.5366,85.6042 0.033,0.4125 -55.7547,0.75 -123.971999,0.75 -109.37516,0 -124.08674,-0.1773 -124.49998,-1.5 z m -82.482021,-6.75 c -0.007,-0.1375 -7.62143,-60.3235 -16.92015,-133.7466 -9.29871,-73.423 -16.80091,-133.6023 -16.67154,-133.7317 0.2034,-0.2034 280.48039,164.2702 281.26159,165.0514 0.3367,0.3367 -245.77824,102.6894 -246.9065,102.6819 -0.4125,0 -0.75603,-0.1175 -0.7634,-0.255 z m 336.5589,-53 c -14.1406,-24.3375 -25.7856,-44.5672 -25.8778,-44.9547 -0.2863,-1.2031 175.74931,-136.8519 177.22511,-136.5656 4.9364,0.9578 4.9782,0.8786 -60.4718,114.6431 -35.1565,61.1088 -64.20101,111.1115 -64.54311,111.117 -0.3422,0.01 -12.1917,-19.9023 -26.3324,-44.2398 z m -445.3466,-127.4318 c -33.1656,-59.7022 -60.11425,-108.7362 -59.88588,-108.9646 0.45397,-0.454 99.79358,6.4196 100.31505,6.9411 0.75752,0.7575 26.12749,208.2646 25.53124,208.8261 -0.36262,0.3415 -1.78431,0.8742 -3.15931,1.1838 -2.40103,0.5406 -4.88709,-3.7341 -62.8011,-107.9864 z m 232.819461,-32.3809 c -79.46491,-46.655 -144.587341,-85.1895 -144.716531,-85.6323 -0.31576,-1.0822 292.60727,-175.7293 293.40317,-174.9334 0.6665,0.6665 -2.4619,284.6523 -3.5555,322.7606 l -0.6495,22.6323 -144.481639,-84.8272 z m 177.555839,73.3127 c 0.2115,-3.1625 1.1037,-77.75 1.9828,-165.75 0.8791,-88 1.9009,-161.42 2.2707,-163.1556 l 0.6723,-3.1555 110.00001,81.4981 c 60.5,44.8239 110,81.8829 110,82.3533 0,0.8809 -223.48241,173.9174 -224.65521,173.9445 -0.3603,0.01 -0.4821,-2.5723 -0.2706,-5.7348 z M -616.3198,492.94261 c -47.29033,-5.4873 -81.34083,-31.735 -118.98823,-91.7217 l -2.6887,-4.2841 4.8367,2.451 c 12.6966,6.4338 34.409,12.4218 55.2314,15.232 15.0338,2.029 49.37556,2.2747 65.00005,0.4651 28.56477,-3.3085 57.76997,-9.7366 90.54659,-19.9297 50.1354,-15.5913 93.6366,-16.8609 138.40422,-4.0393 11.37604,3.2581 35.31008,12.7381 34.84054,13.7999 -0.16024,0.3624 -5.17683,9.4182 -11.14797,20.124 l -10.85662,19.4653 -19.64338,0.01 c -29.59955,0.014 -42.09744,2.9222 -83.64338,19.4643 -60.67205,24.1575 -105.12018,33.2306 -141.89122,28.964 z m 1332.15212,0.048 c -31.0926,-3.5724 -59.8573,-11.5444 -102.7609,-28.4793 -43.18,-17.0441 -55.4131,-19.9495 -84.1443,-19.984 l -18.6444,-0.022 -10.8556,-19.4133 c -5.9707,-10.6773 -10.9888,-19.9503 -11.1514,-20.6066 -0.3566,-1.4391 21.4958,-10.247 34.3053,-13.8273 44.0362,-12.3082 87.2444,-10.8983 136.9438,4.4687 41.4976,12.8309 70.0863,18.5716 104.1651,20.9165 38.8512,2.6733 81.0245,-3.933 106.6331,-16.7038 l 4.7517,-2.3696 -3.0881,5.0188 c -1.6985,2.7603 -7.0796,10.72 -11.958,17.6881 -30.203,43.1405 -57.5773,63.666 -95.2235,71.3995 -11.6804,2.3995 -36.3568,3.3643 -48.9728,1.9147 z m -951.47093,-6.9193 c -23.76551,-1.4592 -43.42448,-2.8676 -43.68659,-3.1297 -0.34328,-0.3433 117.40834,-207.1785 118.77899,-208.6398 0.36242,-0.3865 11.12076,2.9336 11.9334,3.6827 0.65482,0.6035 -26.03474,200.6806 -27.84922,208.7704 -0.47359,2.1114 -0.98057,2.2413 -8.2356,2.1098 -4.25202,-0.077 -27.17546,-1.3341 -50.94098,-2.7934 z m 93.6919,-12.3164 c -0.0167,-1.1547 25.19323,-186.0454 25.41784,-186.4152 0.0552,-0.091 10.90029,2.4986 24.100291,5.7543 47.01837,11.5967 96.2602804,19.9311 133.26241,22.5552 l 9.26242,0.6569 10.04519,16.0061 c 8.11928,12.9372 9.79448,16.2351 8.73758,17.2011 -1.56594,1.4312 -209.398151,125.4916 -210.229781,125.4916 -0.3178,0 -0.58598,-0.5625 -0.59595,-1.25 z m 472.43284,-81.5085 c -92.71901,-68.8372 -115.70631,-86.5162 -117.56021,-90.4127 l -1.6456,-3.4586 15.6456,-4.3962 c 8.605,-2.4178 28.5957,-8.7375 44.42381,-14.0438 15.8281,-5.3062 28.9392,-9.3737 29.1358,-9.0389 0.1967,0.3347 19.1246,34.3587 42.0622,75.6087 22.9376,41.25 42.7747,76.8557 44.0824,79.1238 2.2837,3.9607 2.3064,4.1883 0.5742,5.7559 -1.6982,1.5368 -5.0075,-0.7467 -56.7182,-39.1382 z m -664.41471,-30.9106 c -9.239,-6.3416 -30.64136,-16.6246 -43.24406,-20.777 -25.29516,-8.3343 -55.34745,-11.786 -84.93452,-9.7552 -9.52678,0.6539 -25.87142,2.5225 -36.32142,4.1525 -41.29396,6.4412 -62.63823,8.7489 -92.10589,9.9585 -64.61666,2.6523 -114.79586,-7.1028 -150.39416,-29.2374 -31.1577,-19.3734 -53.8235,-48.5384 -71.8932,-92.5078 -4.0115,-9.76121 -13.622,-37.68581 -18.5985,-54.04031 -0.6022,-1.97902 0.3105,-1.51577 5.4653,2.7741 39.1043,32.543 103.6902,54.12821 179.8835,60.11881 20.26432,1.5932 65.5115,1.3066 91.64295,-0.5805 29.97857,-2.165 67.98221,-1.5579 87.0315,1.3903 49.23897,7.6207 92.3286,24.7204 128.9685,51.1798 9.01734,6.5119 27.79559,22.5171 34.31819,29.2503 l 4.31819,4.4576 -13.21754,23.3927 c -7.26965,12.866 -13.48784,23.6835 -13.81819,24.0389 -0.33036,0.3555 -3.52565,-1.3614 -7.10065,-3.8153 z m 786.35801,-20.53 c -7.0719,-12.7594 -12.9934,-23.7318 -13.1588,-24.3829 -0.3283,-1.2922 14.1589,-15.0042 25.30079,-23.9471 20.249,-16.2525 53.5283,-35.0675 77.6293,-43.8888 19.2652,-7.0513 39.7668,-12.2277 62.3707,-15.7476 18.986,-2.9566 56.9669,-3.5669 87,-1.3979 26.1314,1.8871 71.3786,2.1737 91.6429,0.5805 75.9194,-5.9691 141.11159,-27.71961 179.71444,-59.95928 5.2529,-4.38704 6.2317,-4.89667 5.6344,-2.93363 -17.00515,55.88481 -32.10275,88.47791 -52.51755,113.37581 -37.86519,46.1803 -98.04029,66.1173 -188.36829,62.4097 -29.5782,-1.2141 -46.6403,-3.0368 -88.6059,-9.4654 -42.9461,-6.5789 -72.3573,-6.8478 -101.6461,-0.9293 -22.532,4.5532 -46.9751,14.2321 -64.1376,25.3971 -3.4561,2.2483 -6.67,4.0879 -7.142,4.0879 -0.472,0 -6.64429,-10.4396 -13.71629,-23.1991 z m -352.902309,-15.5509 5.455299,-8.75 7.7945,-0.7598 c 15.0227,-1.4644 14.9613,-1.199 -2.0844,9.0098 -8.4946,5.0875 -15.709399,9.25 -16.032699,9.25 -0.3234,0 1.8669,-3.9375 4.8673,-8.75 z m -23.7702,-29.3845 c -13.66008,-21.3711 -44.6855,-71.3181 -44.6855,-71.938 0,-0.6248 45.2689,-73.42889 46.4342,-74.67825 0.4325,-0.46364 46.565799,73.51045 46.565799,74.66755 0,1.2164 -43.300399,70.6338 -45.503099,72.9487 -1.09,1.1454 -1.5431,0.9843 -2.8114,-1 z m -369.412561,-16.3231 c -51.74807,-58.5747 -130.21225,-88.42111 -232.77294,-88.54281 -35.7023,-0.042 -85.84084,-3.1861 -120.50005,-7.5554 -113.3511,-14.28945 -187.2002,-48.32838 -230.1985,-106.104296 -30.0426,-40.36758 -46.2296,-94.29468 -52.7808,-175.83995 -0.5745,-7.150004 -1.3047,-15.427984 -1.6227,-18.395524 l -0.5783,-5.39552 7.9842,9.92593 c 23.1686,28.803464 63.1907,58.905504 108.1961,81.378264 70.951,35.4282303 151.7438,56.69847 252.50005,66.47542 67.87536,6.58633 119.12662,20.28354 168.59086,45.05694 39.2374,19.651436 67.46266,39.932316 97.98559,70.406256 19.5627,19.53129 30.57873,32.79038 44.44438,53.49418 7.35249,10.97851 9.14045,14.31841 8.40283,15.69671 -3.05925,5.7163 -39.19509,68.4837 -39.76869,69.0777 -0.38261,0.3962 -4.82953,-3.9589 -9.88203,-9.6779 z m 715.63007,6.2703 c -0.679,-1.272 -9.7099,-17.7459 -20.0688,-36.6086 -10.3588,-18.8627 -18.8342,-34.5309 -18.8342,-34.8181 0,-1.27891 16.6826,-24.91471 24.6234,-34.88606 11.9403,-14.99374 40.1893,-43.11388 55.37659,-55.12402 45.6177,-36.074456 97.5141,-61.204566 156.5,-75.782916 25.4505,-6.29008 43.5434,-9.26699 76.5,-12.58688 85.9728,-8.66049 148.2454,-22.33392 211,-46.33007 64.12244,-24.51915 123.38578,-63.73735 154.19618,-102.041224 l 7.9842,-9.92593 -0.5783,5.39552 c -0.318,2.96754 -1.0482,11.24552 -1.6226,18.395524 -5.2297,65.0946 -17.2566,114.45232 -36.6722,150.5 C 985.64796,135.05368 891.40322,177.95909 730.57142,188.4938 c -12.65,0.8285 -40.775,1.951 -62.5,2.4943 -21.725,0.5433 -45.7682,1.6724 -53.4293,2.5092 -64.6004,7.0557 -113.6749,25.73241 -156.07069,59.39711 -7.5472,5.9929 -24.637,22.6192 -31.2712,30.4232 -4.0693,4.7868 -4.098,4.8002 -5.3258,2.5 z m -291.76201,-10.0627 c 21.2734,-34.0477 25.3352,-40.3808 26.5352,-41.3728 0.7469,-0.6175 4.1629,-1.4349 7.5909,-1.8163 19.2869,-2.1461 67.9422,-12.6503 95.5481,-20.62791 17.02681,-4.9205 43.39521,-13.6743 60.18481,-19.9803 18.6846,-7.0178 23.8244,-8.3738 29.0728,-7.6698 5.6468,0.7574 6.9272,2.1654 6.9272,7.6177 0,7.9528 -5.6347,18.0651 -15.4766,27.77501 -7.2186,7.1217 -9.8662,8.9663 -19.682,13.7126 -39.9942,19.3386 -95.57831,36.517 -144.19861,44.5649 -12.6178,2.0886 -44.954,6.0469 -49.3983,6.0469 -2.1102,0 -1.9204,-0.5407 2.8965,-8.25 z m -118.640999,6.1341 c -60.44363,-7.4506 -114.182061,-20.6001 -174.000001,-42.5767 -33.92152,-12.4625 -48.36386,-23.0078 -53.03014,-38.72091 -3.04283,-10.2463 0.59283,-15.741 10.84725,-16.394 6.81259,-0.4338 4.62973,-1.1405 37.18289,12.0374 48.42019,19.60101 106.287751,34.22791 157.6974414,39.86041 l 10.69744003,1.172 14.05255957,22.3641 c 7.72891,12.3003 14.05256,22.5912 14.05256,22.8688 0,0.7232 -9.31429,0.3979 -17.5,-0.6111 z m -26.5,-81.97341 c -54.9898,-7.2051 -110.037781,-22.34507 -158.000001,-43.45515 -4.675,-2.05765 -11.2,-4.51056 -14.5,-5.4509 l -6,-1.70972 0.37125,-146.3974857 c 0.20419,-80.5186203 0.42919,-146.4597443 0.5,-146.5358243 0.0708,-0.0761 26.45375,39.63327 58.62875,88.243014 32.175,48.6097503 58.905661,88.497 59.401471,88.63834 0.49581,0.14134 13.77192,-39.4191297 29.50247,-87.91216 15.73056,-48.493034 28.85089,-88.419024 29.1563,-88.724434 0.30541,-0.30541 20.3143604,43.07564 44.46433,96.402334 24.14998,53.3266903 44.18583,96.62768 44.52403,96.22443 0.3383,-0.40326 18.3151,-39.8831897 39.948499,-87.73319 21.6335,-47.85 41.3245,-91.275004 43.7578,-96.500004 l 4.4242,-9.5 27.7472,88.800964 c 15.2609,48.8405403 28.1581,88.82462 28.6604,88.85352 0.5023,0.0289 28.5743,-39.7955597 62.38211,-88.4988 33.8079,-48.703224 61.6225,-88.397764 61.8102,-88.210064 0.8826,0.88262 -2.1762,292.10853 -3.0743,292.69862 -0.5393,0.35434 -2.7205,0.92249 -4.8472,1.26256 -2.1268,0.34008 -10.5022,3.14537 -18.6121,6.23399 -51.0398,19.43816 -104.84301,33.64566 -155.02831,40.93736 -10.6443,1.5466 -12.4577,1.5937 -13.5938,0.3533 -0.721,-0.7873 -16.0765,-25.05645 -34.1233,-53.93145 -18.046799,-28.875 -33.346399,-53.088196 -33.998999,-53.807106 -0.9415,-1.03703 -8.5028,10.370546 -36.59383,55.208196 l -35.4071696,56.51536 -3.5,-0.053 c -1.925,-0.029 -10.025,-0.9079 -18.0000004,-1.9528 z"
        />
  </g>
</svg>
