<?xml version="1.0" encoding="utf-8"?>
<!-- Generator: Adobe Illustrator 16.0.3, SVG Export Plug-In . SVG Version: 6.00 Build 0)  -->
<svg version="1.2" baseProfile="tiny" id="Ebene_1" xmlns="http://www.w3.org/2000/svg" xmlns:xlink="http://www.w3.org/1999/xlink"
	 x="0px" y="0px" width="166.535px" height="255.092px" viewBox="0 0 166.535 255.092" xml:space="preserve">
<g>
	<path fill-rule="evenodd" fill="#0C2D83" d="M42.431,255.092c-4.937-20.354-9.953-40.69-14.792-61.068
		C18.416,155.189,9.256,116.337,0.233,77.455c-0.499-2.146-0.195-5.033,0.888-6.909c12.901-22.332,26.09-44.498,39-66.825
		c1.688-2.918,3.543-3.711,6.722-3.695C72.166,0.147,97.488,0.169,122.81,0c3.363-0.023,4.939,1.15,6.47,3.975
		c11.729,21.646,23.567,43.235,35.563,64.735c1.768,3.167,2.058,6,1.297,9.439c-12.924,58.471-25.758,116.962-38.602,175.45
		c-0.105,0.482-0.074,0.994-0.107,1.492C99.097,255.092,70.765,255.092,42.431,255.092z M92.59,138.972c0-15.515,0-30.563,0-46.156
		c10.245,0,19.966,0,29.528,0c0-7.157,0-13.75,0-20.894c-10.025,0-19.746,0-29.804,0c0-12.484,0-24.413,0-36.532
		c-6.411,0-12.458,0-19.044,0c0,12.344,0,24.396,0,36.978c-10.588,0-20.642,0-30.535,0c0,7.146,0,13.74,0,20.882
		c10.348,0,20.399,0,30.986,0c0,15.593,0,30.638,0,45.723C80.086,138.972,85.896,138.972,92.59,138.972z"/>
</g>
</svg>
