<?xml version="1.0" encoding="utf-8"?>
<!-- Generator: Adobe Illustrator 16.0.3, SVG Export Plug-In . SVG Version: 6.00 Build 0)  -->
<svg version="1.2" baseProfile="tiny" id="Ebene_1" xmlns="http://www.w3.org/2000/svg" xmlns:xlink="http://www.w3.org/1999/xlink"
	 x="0px" y="0px" width="499.841px" height="485.511px" viewBox="231.976 45.752 499.841 485.511" xml:space="preserve">
<circle fill="#0C2D83" cx="485.241" cy="120.943" r="75.191"/>
<path fill="#0C2D83" d="M725.504,252.946c-16.873-102.284-95.799-149.089-166.763-151.642
	c-13.4,31.478-19.342,125.457,38.982,192.012c69.933,79.822-166.275,236.023,37.335,232.978
	C709.55,525.174,747.786,388.113,725.504,252.946z"/>
<path fill="#0C2D83" d="M688.863,480.01c0.834,30.386-39.1,49.033-91.14,51.139c-30.47,1.243-209.071-7.229-246.597-48.355
	c-19.135-20.967-2.139-36.691,6.827-43.271c30.128-22.069,183.142-8.618,235.177-10.724S688.023,449.618,688.863,480.01z"/>
<path fill="#0C2D83" d="M516.333,269.444c-11.839,13.244-25.245,21.706-38.489,9.862l0,0c-13.244-11.838-14.381-32.178-2.536-45.416
	l66.265-74.11c11.844-13.244,32.178-14.381,45.416-2.542l0,0c13.243,11.838,14.381,32.172,2.536,45.416L516.333,269.444z"/>
<path fill="#0C2D83" d="M296.124,213.853c11.032-1.097,20.989-5.241,29.254-11.435c-2.207-3.024-5.689-5.835-11.575-6.3
	c-12.371-0.975-19.835-5.314-16.828-8.266c-3.618-4.307,7.174-8.68,44.123-3.125c5.896-10.231,8.809-22.31,7.554-34.955
	c-0.022-0.257-0.067-0.515-0.095-0.767l-116.581,11.553c0.022,0.258,0.028,0.51,0.056,0.773
	C235.229,193.536,263.918,217.045,296.124,213.853z"/>
<path fill="#0C2D83" d="M508.471,269.836c-4.698,12.035-18.256,17.981-30.296,13.283l-112.913-63.146
	c-10.724,2.537-94.545,14.118-89.427-2.974c1.367-4.564,10.54,0.364,19.248-0.678c36.551-4.39,33.628-10.483,33.628-10.483
	c-1.719-4.038-5.051-10.612-14.336-11.346c-26.113-2.061-30.397-19.102,39.435-6.44c34.53,6.261,141.378,51.638,141.378,51.638
	C507.222,244.39,513.169,257.796,508.471,269.836L508.471,269.836z"/>
<path display="none" d="M-18.434,59.881c0.134,0.476,0.241,0.952,0.375,1.428c17.338,59.495,79.621,93.671,139.121,76.334
	c59.494-17.332,93.677-79.615,76.339-139.11c-0.14-0.481-0.308-0.941-0.453-1.411L-18.434,59.881z"/>
</svg>
