<?xml version="1.0" encoding="utf-8"?>
<!-- Generator: Adobe Illustrator 16.0.3, SVG Export Plug-In . SVG Version: 6.00 Build 0)  -->
<svg version="1.2" baseProfile="tiny" id="Ebene_1" xmlns="http://www.w3.org/2000/svg" xmlns:xlink="http://www.w3.org/1999/xlink"
	 x="0px" y="0px" width="137.821px" height="273.23px" viewBox="0 0 137.821 273.23" xml:space="preserve">
<g>
	<path fill-rule="evenodd" fill="#0C2D83" d="M66.63,156.566c0,2.167,0.001,4.142,0,6.116c-0.007,30.985-0.03,61.972-0.003,92.957
		c0.005,5.167-0.771,10.058-4.849,13.651c-4.497,3.964-9.753,5.094-15.327,2.67c-5.926-2.577-8.836-7.328-8.836-13.822
		c0.002-25.988-0.35-51.983,0.187-77.96c0.188-9.16-1.589-16.789-7.81-23.627c-3.899-4.286-6.83-9.441-10.52-13.942
		c-0.942-1.149-3.23-2.016-4.696-1.773c-5.862,0.97-10.543-1.312-11.935-6.994c-3.044-12.423-4.068-25.03-0.939-37.569
		C7.052,75.632,22.73,61.437,44.828,59.682c16.533-1.313,33.379-1.278,49.885,0.279c24.901,2.349,42.012,21.36,43.046,46.436
		c0.36,8.714-0.909,17.565-2.141,26.253c-0.948,6.693-5.756,9.255-12.373,8.1c-1.335-0.232-3.493,0.617-4.32,1.697
		c-5.974,7.795-11.831,15.688-17.408,23.77c-1.189,1.725-1.491,4.346-1.499,6.557c-0.101,28.153-0.018,56.307-0.104,84.46
		c-0.036,11.508-9.091,18.532-19.112,15.074c-6.16-2.125-9.5-7.243-9.507-14.813c-0.028-32.151-0.019-64.304-0.042-96.455
		C71.25,158.47,71.963,155.178,66.63,156.566z M100.457,142.716c5.195-2.461,9.997-4.646,14.688-7.046
		c0.781-0.4,1.355-1.69,1.547-2.663c0.51-2.59,0.626-5.258,1.135-7.848c1.691-8.6,2.149-17.181-0.433-25.673
		c-2.601-8.556-8.042-14.593-16.937-18.623C100.457,101.708,100.457,121.76,100.457,142.716z M37.085,142.356
		c0-20.734,0-40.698,0-61.05c-8.327,3.662-13.216,9.628-16.006,17.477c-4.218,11.865-0.594,23.627,0.595,35.411
		c0.063,0.61,0.997,1.316,1.684,1.652C27.789,138.01,32.264,140.083,37.085,142.356z"/>
	<path fill-rule="evenodd" fill="#0C2D83" d="M94.938,26.3c0.004,14.909-11.252,26.21-26.111,26.216
		c-14.67,0.006-26.434-11.606-26.455-26.112C42.35,12.002,54.271,0.054,68.715,0C83.265-0.054,94.934,11.649,94.938,26.3z"/>
</g>
</svg>
