<?xml version="1.0" encoding="utf-8"?>
<svg version="1.2" baseProfile="tiny" id="Ebene_1" xmlns="http://www.w3.org/2000/svg" xmlns:xlink="http://www.w3.org/1999/xlink"
	 x="0px" y="0px" viewBox="0 0 676.609 141.442" xml:space="preserve">
<g id="CMYK">
	<path fill="#00679C" d="M643.83,1.15c-22.873-5.405-45.799,8.757-51.201,31.629c-5.402,22.871,8.758,45.794,31.635,51.202
		c22.867,5.402,45.793-8.758,51.195-31.629C680.863,29.48,666.707,6.553,643.83,1.15z M667.797,50.54
		c-4.404,18.639-23.086,30.184-41.725,25.78c-18.643-4.408-30.184-23.09-25.783-41.729c4.404-18.645,23.088-30.185,41.732-25.781
		C660.666,13.217,672.199,31.901,667.797,50.54z"/>
	<path fill="#00679C" d="M219.374,115.688c-2.76,3.036-6.845,4.555-12.252,4.555c-5.57,0-9.892-1.881-12.966-5.641
		c-3.08-3.755-4.614-10.697-4.614-20.832c0-8.18,1.286-14.176,3.863-17.996c3.409-5.148,8.314-7.726,14.716-7.726
		c2.826,0,5.387,0.584,7.672,1.745c2.285,1.167,4.219,2.831,5.797,4.992c0.956,1.286,1.869,3.322,2.745,6.11l24.943-5.549
		c-3.204-9.644-8.099-16.796-14.684-21.453c-6.591-4.651-15.646-6.979-27.159-6.979c-14.716,0-26.094,4.057-34.138,12.183
		c-8.044,8.119-12.064,19.74-12.064,34.862c0,11.34,2.285,20.648,6.856,27.914c4.576,7.272,10.011,12.351,16.31,15.235
		c6.294,2.891,14.408,4.333,24.349,4.333c8.185,0,14.933-1.184,20.232-3.555c5.3-2.372,9.735-5.884,13.312-10.541
		c3.577-4.651,6.191-10.453,7.855-17.396l-24.754-7.482C224.145,108.249,222.14,112.657,219.374,115.688z M281.895,48.471H253.65
		v91.41h72.329v-22.507h-44.085V48.471z M359.408,101.161h43.959V82.518h-43.959V67.99h47.391v-19.52h-75.701v91.41h77.07v-20.702
		h-48.76V101.161z M446.021,48.471l-34.357,91.41h28.84l4.455-15.089h32.07l4.572,15.089h29.578l-34.348-91.41H446.021z
		 M451.096,105.024l9.984-32.858l10.09,32.858H451.096z M591.662,113.393c-0.666-1.329-1.982-3.22-3.955-5.678
		c-1.975-2.453-3.479-4.058-4.52-4.804c-1.537-1.123-3.986-2.247-7.354-3.371c4.201-0.956,7.508-2.16,9.922-3.619
		c3.783-2.285,6.76-5.268,8.92-8.946c1.57-2.669,2.553-5.716,2.982-9.12c-7.012-7.244-11.797-16.461-13.568-26.488
		c-0.523-0.216-1.021-0.47-1.57-0.648c-4.613-1.496-11.285-2.247-20.016-2.247h-47.078v91.41h28.373v-37.099h2.492
		c2.578,0,4.885,0.707,6.924,2.117c1.496,1.086,3.197,3.431,5.111,7.051l15.1,27.931h31.914L591.662,113.393z M567.771,81.394
		c-1.184,1.54-2.711,2.496-4.582,2.868c-3.699,0.832-6.193,1.248-7.482,1.248h-11.908V66.926h12.408
		c5.154,0,8.666,0.794,10.539,2.371c1.869,1.583,2.803,3.847,2.803,6.797C569.549,78.087,568.957,79.859,567.771,81.394z"/>
	<path fill="#00416B" d="M163.385,121.874c-4.573-7.266-6.858-16.574-6.858-27.914c0-12.421,2.761-22.442,8.188-30.141
		c-0.529-0.783-1.054-1.572-1.643-2.318c-3.328-4.197-7.536-7.417-12.625-9.665c-5.095-2.241-11.777-3.365-20.049-3.365H88.437
		v61.929L65.165,48.471H34.354L0,139.881h28.838l4.458-15.089h32.066l4.573,15.089h60.462c5.03,0,10.643-0.832,16.84-2.49
		c4.527-1.205,8.768-3.631,12.717-7.267c1.886-1.739,3.561-3.685,5.054-5.824C164.458,123.522,163.915,122.717,163.385,121.874z
		 M39.428,105.024l9.986-32.858l10.089,32.858H39.428z M142.062,110.297c-1.416,3.263-3.371,5.548-5.862,6.855
		c-2.496,1.313-6.693,1.967-12.599,1.967h-6.92V69.173h7.045c7.32,0,12.555,1.788,15.716,5.365
		c3.161,3.57,4.738,10.205,4.738,19.886C144.179,101.745,143.472,107.034,142.062,110.297z"/>
	<path fill="#A8141D" d="M625.4,54.835l10.033,3.382l-2.988,8.876l-10.039-3.387L625.4,54.835z M635.584,18.935l13.441,4.533
		l-3.479,10.318l-9.584,19.86l-8.314-2.799l4.457-21.589L635.584,18.935z"/>
</g>
</svg>
