<?xml version="1.0" standalone="no"?>
<!DOCTYPE svg PUBLIC "-//W3C//DTD SVG 20010904//EN"
 "http://www.w3.org/TR/2001/REC-SVG-20010904/DTD/svg10.dtd">
<svg version="1.0" xmlns="http://www.w3.org/2000/svg"
 width="700.000000pt" height="700.000000pt" viewBox="0 0 700.000000 700.000000"
 preserveAspectRatio="xMidYMid meet">
<metadata>
Created by potrace 1.11, written by Peter Selinger 2001-2013
</metadata>
<g transform="translate(0.000000,700.000000) scale(0.100000,-0.100000)"
fill="#000000" stroke="none">
<path d="M7 4488 c-7 -2461 -6 -2586 24 -2773 123 -784 719 -1440 1489 -1644
268 -71 41 -65 2904 -68 l2579 -3 -7 2532 c-4 1573 -11 2571 -17 2633 -29 285
-132 596 -281 843 -335 558 -917 921 -1573 982 -71 6 -1001 10 -2611 10
l-2501 0 -6 -2512z m5354 1442 c674 -68 1185 -582 1249 -1255 6 -71 10 -735
10 -1862 l0 -1753 -2442 0 c-1552 0 -2478 4 -2538 10 -584 62 -1061 469 -1205
1030 -45 175 -45 148 -45 2043 l0 1797 2434 0 c1616 0 2469 -4 2537 -10z"/>
<path d="M720 3993 c0 -1759 -1 -1711 55 -1880 52 -155 123 -269 243 -395 177
-184 398 -291 653 -318 67 -6 868 -10 2360 -10 l2259 0 0 1585 c0 1094 -3
1616 -11 1687 -25 235 -121 444 -279 612 -91 96 -177 159 -305 222 -127 62
-221 89 -357 104 -65 7 -852 10 -2358 10 l-2260 0 0 -1617z m2350 960 c111
-46 207 -142 253 -253 22 -55 22 -58 22 -615 0 -557 0 -560 -22 -615 -46 -112
-144 -209 -253 -251 -39 -16 -86 -23 -162 -27 -60 -2 -108 -6 -108 -8 0 -2
124 -242 275 -532 257 -493 275 -532 275 -580 l0 -52 -223 0 -222 0 -321 583
-321 582 -367 3 -366 2 0 -585 0 -585 -205 0 -205 0 0 1480 0 1481 948 -3 947
-3 55 -22z m2820 -196 l0 -223 -815 -1049 -814 -1050 814 -3 815 -2 0 -205 0
-205 -1115 0 -1115 0 0 223 1 222 815 1050 815 1050 -815 3 -816 2 0 205 0
205 1115 0 1115 0 0 -223z"/>
<path d="M1535 4558 c-3 -7 -4 -224 -3 -483 l3 -470 700 0 700 0 0 480 0 480
-698 3 c-553 2 -699 0 -702 -10z"/>
</g>
</svg>
