<?xml version="1.0" encoding="utf-8"?>
<!-- Generator: Adobe Illustrator 18.0.0, SVG Export Plug-In . SVG Version: 6.00 Build 0)  -->
<!DOCTYPE svg PUBLIC "-//W3C//DTD SVG 1.1//EN" "http://www.w3.org/Graphics/SVG/1.1/DTD/svg11.dtd">
<svg version="1.1" id="Ebene_1" xmlns="http://www.w3.org/2000/svg" xmlns:xlink="http://www.w3.org/1999/xlink" x="0px" y="0px"
	 viewBox="0 0 132 50.3" enable-background="new 0 0 132 50.3" xml:space="preserve">
<path fill="#212837" d="M4.9,34.9c0,5.5,3.2,10.7,9.2,10.7c6.2,0,9.4-5,9.4-10.7c0-5.6-3.5-10.2-9.5-10.2
	C8.5,24.8,4.9,29.6,4.9,34.9 M23.3,45.4h-0.1c-2.3,3.1-5.9,4.7-9.7,4.7C5.2,50.1,0,43.1,0,35.3c0-8,5.1-14.9,13.6-14.9
	c3.8,0,7.4,1.8,9.7,4.8h0.1V-0.2h4.8v49.5h-4.8V45.4z"/>
<path fill="#212837" d="M56.5,32.2c-0.7-4.1-4.1-7.4-8.3-7.4c-4.1,0-8,3.3-8.6,7.4H56.5z M61.3,42.2c-2.7,5-7.3,7.9-13,7.9
	c-8.4,0-13.8-6.4-13.8-14.5c0-8.3,4.9-15.2,13.7-15.2c9.1,0,13.9,7.5,13.4,15.9H39.4c0.1,5.2,3.8,9.4,9.2,9.4c3.1,0,5.3-1.4,7-3.5"
	/>
<rect x="68" y="0" fill="#212837" width="4.8" height="49.5"/>
<polygon fill="#212837" points="82,11.2 82,21.3 82,25.7 82,49.5 86.8,49.5 86.8,25.7 91.9,25.7 91.9,21.3 86.8,21.3 86.8,11.2 "/>
<path fill="#212837" d="M98.6,35.1c0,5.5,3.2,10.7,9.2,10.7c6.2,0,9.4-5,9.4-10.7c0-5.6-3.5-10.2-9.5-10.2
	C102.2,25,98.6,29.9,98.6,35.1 M121.8,49.6H117v-3.9h-0.1c-2.5,3.1-5.8,4.7-9.7,4.7c-8.3,0-13.5-7-13.5-14.8c0-8,5.1-14.9,13.6-14.9
	c3.8,0,7.3,1.8,9.7,4.8h0.1v-4h4.8V49.6z"/>
<polygon fill="#212837" points="127,49.5 132,46.1 127,42.7 "/>
</svg>
