<?xml version="1.0" encoding="UTF-8" standalone="no"?>
<!DOCTYPE svg PUBLIC "-//W3C//DTD SVG 1.1//EN" "http://www.w3.org/Graphics/SVG/1.1/DTD/svg11.dtd">
<svg width="100%" height="100%" viewBox="0 0 460 460" version="1.1" xmlns="http://www.w3.org/2000/svg"
     xml:space="preserve"
     style="fill-rule:evenodd;clip-rule:evenodd;stroke-linejoin:round;stroke-miterlimit:2;">
    <path d="M230,0c126.94,0 230,103.06 230,230c0,126.94 -103.06,230 -230,230c-126.94,0 -230,-103.06 -230,-230c0,-126.94 103.06,-230 230,-230Zm0,31.186c109.728,0 198.814,89.086 198.814,198.814c-0,109.728 -89.086,198.814 -198.814,198.814c-109.728,-0 -198.814,-89.086 -198.814,-198.814c0,-109.728 89.086,-198.814 198.814,-198.814Z"
          style="fill:#00befc;"/>
    <g>
        <path d="M220.402,164.646l0,47.985c0,10.77 -2.64,20.029 -7.922,27.776c-5.281,7.747 -11.658,11.62 -19.129,11.62l-7.536,0l34.587,67.37l0,9.636l-27.824,0l-40.191,-77.006l-45.601,0l0,77.006l-25.505,0l-0,-203.783l112.07,0c7.471,0 13.848,3.874 19.129,11.621c5.282,7.746 7.922,17.005 7.922,27.775Zm-112.263,56.969l85.212,-0c0.902,-0 1.353,-0.661 1.353,-1.984l-0,-61.985c-0,-1.322 -0.451,-1.984 -1.353,-1.984l-85.212,0c-0.902,0 -1.353,0.662 -1.353,1.984l0,61.985c0,1.323 0.451,1.984 1.353,1.984Z"
              style="fill:#00befc;fill-rule:nonzero;"/>
        <path d="M239.918,155.379l0,-30.412l139.122,-0l0,33.813l-46.123,63.22l24.627,0l0,30.027l-46.533,0l-33.994,46.594l102.023,0l0,30.412l-139.122,0l0,-33.813l31.512,-43.193l-19,0l0,-30.027l40.907,0l48.604,-66.621l-102.023,-0Z"
              style="fill:#00befc;fill-rule:nonzero;"/>
    </g>
</svg>
